<?xml version="1.0" encoding="utf-8"?>
<!-- Generator: Adobe Illustrator 16.0.0, SVG Export Plug-In . SVG Version: 6.00 Build 0)  -->
<!DOCTYPE svg PUBLIC "-//W3C//DTD SVG 1.1//EN" "http://www.w3.org/Graphics/SVG/1.1/DTD/svg11.dtd">
<svg version="1.1" xmlns="http://www.w3.org/2000/svg" xmlns:xlink="http://www.w3.org/1999/xlink" x="0px" y="0px" width="489px"
	 height="198px" viewBox="0 0 489 198" enable-background="new 0 0 489 198" xml:space="preserve">
<g id="Layer_1">
	<g>
		<polygon points="441,252 387.747,252 334.496,304.521 329.885,299.975 378.525,252 325.272,252 303.259,273.713 281.244,252 
			227.991,252 276.632,299.975 272.021,304.523 218.768,252 165.515,252 272.021,357.047 303.259,326.236 334.496,357.047 		"/>
		<polygon points="50.087,357.047 103.34,357.047 103.432,356.957 145.493,356.666 200.621,357.047 162.965,319.391 
			153.749,319.328 153.75,319.215 145.493,319.271 141.667,319.244 156.592,304.524 209.844,357.047 263.098,357.047 156.592,252 		
			"/>
	</g>
</g>
<g id="Layer_2">
	<g>
		<g>
			<path fill="#FFFFFF" d="M229.242,171.621c3.954,0,5.618-2.828,3.697-6.284L159.232,32.663c-1.92-3.456-6.726-6.284-10.68-6.284
				h-17.899c-3.954,0-10.423,0-14.377,0H98.378c-3.954,0-8.759,2.828-10.679,6.284L13.991,165.337
				c-1.92,3.456-0.256,6.284,3.698,6.284h17.898c3.954,0,8.759-2.828,10.679-6.284l57.57-103.626c1.92-3.456,5.062-3.456,6.982,0
				l57.569,103.626c1.92,3.456,6.726,6.284,10.68,6.284H229.242z"/>
		</g>
		<g>
			<path fill="#FFFFFF" d="M453.413,26.379c-3.954,0-8.76,2.828-10.68,6.284l-57.569,103.624c-1.92,3.456-5.062,3.456-6.982,0.001
				l-17.225-31.004c-1.92-3.456-5.062-9.111-6.982-12.567l-9.155-16.481c-1.92-3.456-5.062-9.111-6.982-12.567l-9.156-16.48
				c-1.92-3.456-5.062-9.111-6.981-12.567l-1.088-1.957c-1.919-3.456-6.725-6.284-10.679-6.284h-50.175
				c-3.954,0-5.617,2.828-3.697,6.284l33.362,60.053c1.92,3.456,5.062,9.111,6.982,12.567l9.155,16.481
				c1.92,3.456,1.92,9.111,0,12.567l-1.087,1.955c-1.92,3.456-5.062,3.455-6.982-0.001L239.922,32.663
				c-1.92-3.456-6.726-6.284-10.68-6.284h-50.175c-3.954,0-5.618,2.828-3.697,6.284l73.708,132.674
				c1.92,3.456,6.726,6.284,10.68,6.284h17.898c3.954,0,10.423,0,14.377,0h17.899c3.954,0,8.759-2.828,10.679-6.284l1.088-1.957
				c1.92-3.456,5.062-3.456,6.981,0l1.087,1.957c1.92,3.456,6.726,6.284,10.68,6.284h17.898c3.954,0,10.423,0,14.377,0h17.899
				c3.954,0,8.76-2.828,10.68-6.284l73.707-132.674c1.92-3.456,0.257-6.284-3.697-6.284H453.413z"/>
		</g>
	</g>
</g>
</svg>
